<?xml version="1.0" encoding="utf-8"?>
<!-- Generator: Adobe Illustrator 23.0.3, SVG Export Plug-In . SVG Version: 6.00 Build 0)  -->
<svg version="1.1" id="Layer_1" xmlns="http://www.w3.org/2000/svg" xmlns:xlink="http://www.w3.org/1999/xlink" x="0px" y="0px"
	 viewBox="0 0 1732 330" style="enable-background:new 0 0 1732 330;" xml:space="preserve">
<style type="text/css">
	.st0{fill:#37938E;}
	.st1{fill:#9FCBC9;}
</style>
<g>
	<path class="st0" d="M729.89,109.61c-7.57-4.47-17.2-6.88-25.8-6.88c-31.65,0-45.75,24.42-45.75,62.6c0,36.8,14.45,62.6,45.75,62.6
		c9.29,0,19.26-2.06,27.17-4.81c5.85-1.72,11.7-4.13,16.17-4.13c7.57,0,11.35,5.85,11.35,11.35c0,6.53-4.82,9.98-10.66,12.73
		c-13.07,6.19-33.37,8.94-44.03,8.94c-49.53,0-74.99-35.43-74.99-86.68c0-54.35,26.83-86.34,74.99-86.34
		c13.41,0,30.61,3.78,41.96,11.01c7.57,4.81,9.63,9.63,10.66,18.23l1.38,14.79c1.38,10.32-4.47,16.85-12.38,16.85
		c-7.22,0-12.38-4.82-13.42-13.07L729.89,109.61z"/>
	<path class="st0" d="M868.84,228.28c9.63,0,18.57-2.06,26.83-4.47c6.19-1.72,11.35-4.13,16.86-4.13c7.57,0,11.7,5.5,11.7,11.01
		c0,6.19-5.16,9.29-10.66,12.39c-12.73,6.19-32.68,8.94-44.72,8.94c-51.6,0-76.02-35.09-76.02-87.03
		c0-53.66,24.77-85.99,70.17-85.99c44.37,0,65.35,28.2,65.35,77.74c0,12.38-4.82,15.48-11.35,15.48h-95.28
		C821.72,203.86,835.13,228.28,868.84,228.28z M901.52,152.26c-0.69-28.89-9.98-49.53-38.52-49.53c-26.83,0-39.56,22.7-41.28,49.53
		H901.52z"/>
	<path class="st0" d="M957.58,103.42c-0.69-2.41-1.72-6.19-1.72-8.26c0-8.26,6.19-14.45,14.45-14.45c6.19,0,12.04,4.13,13.76,9.97
		l41.96,132.08h1.03l41.96-132.08c1.38-5.85,7.22-9.97,13.76-9.97c7.91,0,14.1,6.19,14.1,14.45c0,2.06-1.03,5.85-1.72,8.26
		l-41.62,125.89c-3.1,9.63-9.97,20.98-27.17,20.98c-17.2,0-23.73-11.35-26.83-20.98L957.58,103.42z"/>
	<path class="st0" d="M1137.13,224.15h30.27V106.52h-29.24c-6.88,0-12.04-5.16-12.04-11.7c0-6.88,5.16-12.38,12.04-12.38h45.75
		c6.88,0,12.38,5.5,12.38,12.38v129.33h29.93c6.88,0,12.04,5.5,12.04,12.38c0,6.54-5.16,12.04-12.04,12.04h-89.09
		c-6.88,0-12.04-5.5-12.04-12.04C1125.09,229.66,1130.25,224.15,1137.13,224.15z M1153.98,34.63c0-11.35,8.94-20.29,20.29-20.29
		s20.29,8.94,20.29,20.29s-8.94,20.29-20.29,20.29S1153.98,45.98,1153.98,34.63z"/>
	<path class="st0" d="M1256.13,106.52c-6.88,0-12.04-5.16-12.04-11.7c0-6.88,5.16-12.38,12.04-12.38h24.08V44.94
		c0-8.26,6.19-14.45,14.45-14.45c8.26,0,14.45,6.19,14.45,14.45v37.49h41.62c6.88,0,12.04,5.5,12.04,12.38
		c0,6.54-5.16,11.7-12.04,11.7h-41.62v90.12c0,23.73,10.66,30.96,24.42,30.96c12.73,0,17.2-6.88,23.73-6.88
		c6.19,0,11.35,4.47,11.35,11.69c0,4.47-2.06,8.26-6.88,11.7c-9.97,6.19-24.08,7.91-31.65,7.91c-33.02,0-49.87-24.42-49.87-55.72
		v-89.78H1256.13z"/>
	<path class="st0" d="M1648.14,228.28c9.63,0,18.57-2.06,26.83-4.47c6.19-1.72,11.35-4.13,16.86-4.13c7.57,0,11.69,5.5,11.69,11.01
		c0,6.19-5.16,9.29-10.66,12.39c-12.73,6.19-32.68,8.94-44.72,8.94c-51.6,0-76.02-35.09-76.02-87.03
		c0-53.66,24.77-85.99,70.17-85.99c44.37,0,65.36,28.2,65.36,77.74c0,12.38-4.82,15.48-11.35,15.48h-95.28
		C1601.02,203.86,1614.43,228.28,1648.14,228.28z M1680.82,152.26c-0.69-28.89-9.98-49.53-38.52-49.53
		c-26.83,0-39.56,22.7-41.28,49.53H1680.82z"/>
</g>
<g>
	<path class="st1" d="M553.7,158.79c-0.43-0.86-0.86-1.72-1.29-2.15c-36.91-57.08-99.57-94.42-167.8-99.57l-9.44-0.43
		c-3.43-0.43-7.3,0.86-9.87,3.43c-2.58,2.58-4.29,6.01-4.29,9.44v81.54h-38.62V82.4c0-7.3-5.58-12.87-12.87-12.87
		c-7.3,0-12.87,5.58-12.87,12.87v68.24h-38.62V92.7c0-7.3-5.58-12.87-12.87-12.87c-7.3,0-12.87,5.58-12.87,12.87v57.94h-38.62v-23.6
		c0-7.3-5.58-12.87-12.87-12.87c-7.3,0-12.87,5.58-12.87,12.87v23.6H118.1c-26.18-27.47-47.21-59.65-61.37-95.7
		c-2.57-6.01-10.3-9.44-16.74-6.87c-6.44,2.57-9.87,10.3-7.3,16.74c15.02,36.91,35.62,70.38,62.23,99.14
		c-26.18,28.75-47.21,61.8-62.23,99.14c-2.58,6.44,0.86,14.16,7.3,16.74c1.72,0.43,3,0.86,4.72,0.86c5.15,0,9.87-3,12.02-8.15
		c14.59-36.48,35.19-68.67,61.8-96.13h49.78v26.18c0,7.3,5.58,12.87,12.87,12.87c7.3,0,12.87-5.58,12.87-12.87v-26.18h38.62v58.8
		c0,7.3,5.58,12.87,12.87,12.87c7.3,0,12.87-5.58,12.87-12.87v-58.8h38.62v69.52c0,7.3,5.58,12.87,12.87,12.87
		c7.3,0,12.87-5.58,12.87-12.87v-69.52h38.62v81.54c0,3.43,1.29,6.87,4.29,9.44c2.57,2.15,5.58,3.43,8.58,3.43c0.43,0,0.86,0,0.86,0
		l9.44-0.86c67.81-5.15,130.46-42.49,167.8-99.57C554.56,167.37,554.99,162.65,553.7,158.79z M387.18,244.19V83.25
		c55.36,5.58,106.43,35.19,139.05,80.25C493.62,209,442.55,238.61,387.18,244.19z"/>
</g>
<path class="st0" d="M1538.45,243.75l-143.28-140.93c-5.55-5.46-5.63-14.39-0.16-19.94l0,0c5.46-5.55,14.39-5.63,19.94-0.16
	l143.28,140.93c5.55,5.46,5.63,14.39,0.16,19.94v0C1552.93,249.13,1544.01,249.21,1538.45,243.75z"/>
<path class="st0" d="M1415.51,243.91l142.03-142.03c5.51-5.51,5.51-14.43,0-19.94v0c-5.51-5.51-14.43-5.51-19.94,0l-142.03,142.03
	c-5.51,5.51-5.51,14.43,0,19.94v0C1401.08,249.42,1410.01,249.42,1415.51,243.91z"/>
</svg>
